<svg width="24" height="24" fill="none" viewBox="0 0 24 24"><path stroke="currentColor" stroke-width="1.303" d="M5.898 3.31c.93 0 1.711.775 1.711 1.766A1.747 1.747 0 0 1 5.9 6.84a1.747 1.747 0 0 1-1.701-1.764c0-.991.777-1.77 1.7-1.77Zm15.616 0c.93 0 1.709.775 1.709 1.766a1.747 1.747 0 0 1-1.704 1.764 1.747 1.747 0 0 1-1.703-1.764c0-.991.78-1.77 1.704-1.77Zm-7.803 0c.923 0 1.7.775 1.7 1.766a1.747 1.747 0 0 1-1.7 1.764 1.747 1.747 0 0 1-1.707-1.764c0-.991.782-1.77 1.707-1.77Zm-7.813 7.807c.93 0 1.711.77 1.711 1.764a1.747 1.747 0 0 1-1.71 1.765 1.747 1.747 0 0 1-1.701-1.765c0-.993.777-1.764 1.7-1.764Zm15.616 0c.93 0 1.709.77 1.709 1.764a1.747 1.747 0 0 1-1.704 1.765 1.747 1.747 0 0 1-1.703-1.765c0-.993.78-1.764 1.704-1.764Zm-7.803 0c.923 0 1.7.77 1.7 1.764a1.747 1.747 0 0 1-1.7 1.765 1.747 1.747 0 0 1-1.707-1.765c0-.993.782-1.764 1.707-1.764Zm-7.813 7.807c.93 0 1.711.775 1.711 1.766a1.747 1.747 0 0 1-1.71 1.765 1.747 1.747 0 0 1-1.701-1.765c0-.991.777-1.766 1.7-1.766Zm15.616 0c.93 0 1.709.775 1.709 1.766a1.747 1.747 0 0 1-1.704 1.765 1.747 1.747 0 0 1-1.703-1.765c0-.991.78-1.766 1.704-1.766Zm-7.803 0c.923 0 1.7.775 1.7 1.766a1.747 1.747 0 0 1-1.7 1.765 1.747 1.747 0 0 1-1.707-1.765c0-.991.782-1.766 1.707-1.766Z"/></svg>