<svg width="24" height="24" fill="none" viewBox="0 0 24 24"><path stroke="currentColor" stroke-width="1.001" d="M8 9v10.501a1 1 0 0 0 1.001 1.001h10.002a.997.997 0 0 0 .997-.996V9M7 4.502h14.002a.997.997 0 0 1 1.001.997v2.002a.997.997 0 0 1-.996 1.001H7.003a.997.997 0 0 1-1-.996V5.503a.997.997 0 0 1 .996-1Z"/><path fill="currentColor" d="M13.625 18.387a.54.54 0 0 0 .767 0l3.467-3.45a.544.544 0 0 0-.767-.77l-3.081 3.068-3.068-3.082a.542.542 0 1 0-.767.767zm.403-7.384h-.546l-.017 6.999h1.088l.017-7z"/></svg>