<svg width="24" height="24" fill="none" viewBox="0 0 24 24"><g transform="matrix(1.2 0 0 1.2 -50.4 -50.4)"><path fill="currentColor" d="M51.068 56.944q-1.044 0-1.884-.324a3.9 3.9 0 0 1-1.416-.9 3.9 3.9 0 0 1-.888-1.392q-.3-.816-.3-1.8 0-1.404.492-2.52a5.55 5.55 0 0 1 1.38-1.908 6.1 6.1 0 0 1 2.052-1.2q1.176-.42 2.508-.42.96 0 1.728.276.768.264 1.32.768t.84 1.2q.3.684.3 1.524a5 5 0 0 1-.24 1.56 4.4 4.4 0 0 1-.648 1.308q-.42.564-.984.9a2.33 2.33 0 0 1-1.2.324q-.42 0-.744-.144a1.3 1.3 0 0 1-.492-.42 1.1 1.1 0 0 1-.18-.636q0-.18.036-.384.048-.204.072-.42l.168.24q-.18.564-.492.96-.3.396-.708.6a1.96 1.96 0 0 1-.888.204 1.6 1.6 0 0 1-.924-.276 1.87 1.87 0 0 1-.624-.768 2.7 2.7 0 0 1-.228-1.14q0-.564.204-1.14t.588-1.056.912-.78 1.164-.3q.372 0 .66.18.3.18.48.504.192.324.228.756l-.288.708.312-2.04h1.212l-.612 3.696a.75.75 0 0 0 .024.384.5.5 0 0 0 .204.216.6.6 0 0 0 .288.072q.36 0 .672-.24t.54-.66q.228-.432.36-.984a5 5 0 0 0 .132-1.164q0-.9-.384-1.536a2.44 2.44 0 0 0-1.116-.984q-.72-.348-1.74-.348-1.224 0-2.22.348a4.6 4.6 0 0 0-1.704.996q-.696.648-1.08 1.584-.372.936-.372 2.124 0 .828.228 1.476.24.636.684 1.092t1.104.684q.66.24 1.5.24.564 0 .972-.084.408-.072.78-.24.372-.156.828-.396l.444.804q-.708.36-1.212.54a5 5 0 0 1-.936.264 5.6 5.6 0 0 1-.912.072m.108-3.624q.408 0 .78-.252.384-.264.648-.66.276-.408.336-.84l.06-.372q.024-.156.024-.3 0-.312-.12-.528a.8.8 0 0 0-.348-.348 1.05 1.05 0 0 0-.516-.12 1.24 1.24 0 0 0-.852.348 2.36 2.36 0 0 0-.612.876 2.7 2.7 0 0 0-.228 1.092q0 .516.216.816a.74.74 0 0 0 .612.288"/><circle cx="52" cy="52" r="8.5" stroke="currentColor"/></g></svg>