<svg width="24" height="24" fill="none" viewBox="0 0 24 24"><path fill="currentColor" d="M14.991 14.94a6.9 6.9 0 0 1-2.51-.433 5.2 5.2 0 0 1-1.884-1.2 5.2 5.2 0 0 1-1.181-1.852 6.9 6.9 0 0 1-.403-2.399q0-1.87.658-3.355.671-1.502 1.836-2.54 1.181-1.057 2.735-1.603Q15.805 1 17.58 1q1.282 0 2.303.368 1.026.35 1.758 1.026t1.12 1.597q.4.91.4 2.03a6.7 6.7 0 0 1-1.183 3.819 4.3 4.3 0 0 1-1.311 1.199 3.03 3.03 0 0 1-1.602.433 2.6 2.6 0 0 1-.987-.19 1.7 1.7 0 0 1-.654-.563 1.47 1.47 0 0 1-.242-.845q0-.242.047-.515.065-.264.096-.558l.225.32a3.9 3.9 0 0 1-.654 1.277 2.6 2.6 0 0 1-2.125 1.07 2.17 2.17 0 0 1-1.234-.364 2.6 2.6 0 0 1-.831-1.022 3.5 3.5 0 0 1-.303-1.52q0-.752.272-1.519a4.8 4.8 0 0 1 .78-1.407 4.3 4.3 0 0 1 1.216-1.039 3.03 3.03 0 0 1 1.554-.398q.494 0 .879.238.394.243.636.671.26.433.303 1.009l-.38.944.415-2.719h1.615l-.814 4.922a1 1 0 0 0 .03.51.65.65 0 0 0 .273.291.9.9 0 0 0 .38.095 1.43 1.43 0 0 0 .897-.32 2.6 2.6 0 0 0 .719-.879q.303-.576.48-1.312t.173-1.55a3.9 3.9 0 0 0-.51-2.043 3.25 3.25 0 0 0-1.485-1.311 5.2 5.2 0 0 0-2.316-.464 8.7 8.7 0 0 0-2.957.464q-1.334.446-2.273 1.324a6.1 6.1 0 0 0-1.437 2.113q-.494 1.247-.498 2.827 0 1.104.303 1.965.325.849.913 1.455a3.7 3.7 0 0 0 1.472.909q.88.324 1.996.324.753 0 1.299-.112.536-.1 1.039-.32a13 13 0 0 0 1.1-.529l.592 1.074q-.943.476-1.614.719a6.5 6.5 0 0 1-2.464.445m.148-4.826a1.8 1.8 0 0 0 1.039-.338 3.5 3.5 0 0 0 .861-.879 2.6 2.6 0 0 0 .446-1.117l.082-.498a4 4 0 0 0 .03-.398 1.4 1.4 0 0 0-.16-.701 1.1 1.1 0 0 0-.463-.463 1.3 1.3 0 0 0-.688-.16 1.65 1.65 0 0 0-1.134.463 3.64 3.64 0 0 0-1.117 2.623q0 .684.285 1.082.303.39.819.386"/></svg>